<?xml version="1.0" standalone="no"?>
<!DOCTYPE svg PUBLIC "-//W3C//DTD SVG 20010904//EN"
 "http://www.w3.org/TR/2001/REC-SVG-20010904/DTD/svg10.dtd">
<svg version="1.0" xmlns="http://www.w3.org/2000/svg"
 width="261.000000pt" height="261.000000pt" viewBox="0 0 261.000000 261.000000"
 preserveAspectRatio="xMidYMid meet">
<metadata>
Created by potrace 1.11, written by Peter Selinger 2001-2013
</metadata>
<g transform="translate(0.000000,261.000000) scale(0.100000,-0.100000)"
fill="#000000" stroke="none">
<path d="M10 2529 c0 -12 13 -18 48 -23 100 -13 189 -83 236 -185 21 -46 21
-51 22 -1043 0 -549 3 -1000 6 -1004 4 -3 15 7 24 23 10 15 21 30 24 33 3 3
68 91 143 195 76 105 144 198 152 208 8 9 15 20 15 24 0 3 7 13 15 22 8 9 65
84 125 167 l110 152 0 543 c0 299 -1 551 -3 559 -23 100 -65 173 -133 237 -50
46 -138 91 -193 100 -20 3 -161 6 -313 7 -251 1 -278 0 -278 -15z"/>
<path d="M1242 2530 c2 -8 20 -17 45 -22 101 -17 187 -83 232 -178 24 -51 26
-66 29 -230 2 -96 6 -177 9 -180 2 -3 23 16 46 42 64 71 170 189 187 208 164
187 241 264 282 280 18 8 35 17 38 20 8 10 95 30 129 30 25 0 31 4 31 23 l0
22 -515 0 c-449 0 -515 -2 -513 -15z"/>
<path d="M1388 1702 c-42 -59 -128 -177 -189 -262 -62 -85 -123 -170 -136
-189 l-23 -34 44 -81 c24 -44 76 -144 116 -221 40 -77 81 -155 92 -172 11 -18
16 -33 12 -33 -4 0 0 -8 8 -17 22 -26 60 -105 53 -111 -2 -3 -128 -6 -277 -6
-254 -1 -298 -5 -298 -25 0 -4 133 -7 296 -7 162 1 299 -1 303 -4 4 -3 34 -54
66 -115 31 -60 67 -128 79 -150 49 -92 176 -184 276 -201 52 -8 790 -12 795
-4 9 15 -14 28 -57 33 -56 7 -142 46 -185 84 -33 30 -41 43 -123 199 -29 54
-65 122 -80 149 -29 53 -153 289 -192 365 -13 25 -25 47 -28 50 -4 3 -18 30
-33 60 -15 30 -40 78 -55 105 -15 28 -61 113 -101 190 -76 144 -97 183 -172
320 -24 44 -44 82 -44 85 0 3 -7 16 -15 30 -8 14 -19 34 -25 44 -5 11 -14 21
-20 22 -5 2 -45 -45 -87 -104z"/>
</g>
</svg>
